<?xml version="1.0" encoding="UTF-8"?><svg id="Layer_1" xmlns="http://www.w3.org/2000/svg" viewBox="0 0 256 256"><defs><style>.cls-1{fill:#fff;}</style></defs><rect width="256" height="256"/><path class="cls-1" d="M96.72,102.64l-14.07,43.4h-13.14l-8.31-26.41-8.68,26.41h-13.14l-14.07-43.4h12.65l8.74,27.71,9.18-27.71h11.28l8.74,27.96,9.11-27.96h11.72Z"/><path class="cls-1" d="M120.1,134.51h-6.7v11.53h-12.28v-43.4h19.84c3.93,0,7.34.65,10.23,1.95,2.89,1.3,5.12,3.16,6.7,5.58,1.57,2.42,2.36,5.26,2.36,8.53s-.73,5.88-2.2,8.21c-1.47,2.34-3.56,4.16-6.29,5.49l9.36,13.64h-13.14l-7.87-11.53ZM125.92,113.99c-1.28-1.12-3.18-1.67-5.7-1.67h-6.82v12.71h6.82c2.52,0,4.42-.55,5.7-1.64,1.28-1.09,1.92-2.66,1.92-4.68s-.64-3.6-1.92-4.71Z"/><path class="cls-1" d="M147,102.64h20.52c4.75,0,8.97.89,12.65,2.67,3.68,1.78,6.53,4.3,8.56,7.56,2.02,3.27,3.04,7.09,3.04,11.47s-1.01,8.21-3.04,11.47c-2.03,3.27-4.88,5.79-8.56,7.56-3.68,1.78-7.9,2.67-12.65,2.67h-20.52v-43.4ZM167.03,136.25c3.72,0,6.71-1.05,8.96-3.16,2.25-2.11,3.38-5.02,3.38-8.74s-1.13-6.63-3.38-8.74c-2.25-2.11-5.24-3.16-8.96-3.16h-7.75v23.81h7.75Z"/><path class="cls-1" d="M198.21,102.64h12.28v33.67h20.71v9.73h-32.98v-43.4Z"/></svg>